<!-- Generated by IcoMoon.io -->
<svg version="1.1" xmlns="http://www.w3.org/2000/svg" width="55" height="32" viewBox="0 0 55 32">
<title>Logo-1</title>
<path d="M19.613 3.613l3.617 3.424-6.714-0.004v16.613h17.548v-6.352l3.613 3.42v-17.101h-18.065zM33.906 16.892l-10.255-9.709h10.255v9.709zM30.722 21.216h-11.429v-11.173h0.808v10.416h10.621v0.757zM21.992 25.858l-0.422 0.869-0.422-0.869h-0.354l0.616 1.159v0.675h0.32v-0.675l0.615-1.159h-0.353zM22.522 27.692l0.149-0.427h0.711l0.15 0.427h0.333l-0.694-1.835h-0.286l-0.693 1.835h0.331zM23.026 26.247l0.266 0.761h-0.532l0.266-0.761zM24.707 26.964c-0.046 0.071-0.069 0.148-0.069 0.233 0 0.155 0.054 0.28 0.163 0.377s0.255 0.144 0.436 0.144 0.338-0.049 0.469-0.147l0.103 0.122h0.355l-0.27-0.319c0.106-0.144 0.159-0.33 0.159-0.556h-0.266c0 0.123-0.026 0.236-0.077 0.336l-0.354-0.418 0.125-0.091c0.088-0.064 0.152-0.128 0.19-0.192s0.058-0.135 0.058-0.212c0-0.116-0.043-0.213-0.129-0.291s-0.194-0.118-0.328-0.118c-0.148 0-0.265 0.042-0.353 0.126s-0.131 0.197-0.131 0.34c0 0.059 0.014 0.12 0.042 0.183s0.079 0.139 0.15 0.229c-0.136 0.097-0.227 0.182-0.273 0.253zM25.535 27.37c-0.090 0.069-0.186 0.103-0.29 0.103-0.092 0-0.165-0.026-0.219-0.079s-0.082-0.122-0.082-0.207c0-0.098 0.050-0.186 0.151-0.262l0.039-0.028 0.401 0.473zM25.206 26.557c-0.087-0.107-0.13-0.195-0.13-0.266 0-0.061 0.018-0.112 0.053-0.152s0.083-0.061 0.142-0.061c0.055 0 0.101 0.017 0.137 0.052s0.054 0.074 0.054 0.122c0 0.072-0.026 0.131-0.078 0.178l-0.039 0.032-0.14 0.096zM28.193 27.554c0.126-0.11 0.198-0.263 0.217-0.459h-0.318c-0.017 0.131-0.057 0.225-0.12 0.281s-0.157 0.084-0.282 0.084c-0.137 0-0.241-0.052-0.312-0.156s-0.106-0.255-0.106-0.454v-0.163c0.002-0.196 0.039-0.344 0.113-0.445s0.181-0.152 0.32-0.152c0.119 0 0.21 0.029 0.271 0.088s0.101 0.153 0.116 0.285h0.318c-0.020-0.201-0.092-0.356-0.215-0.466s-0.286-0.165-0.489-0.165c-0.15 0-0.283 0.036-0.398 0.107s-0.202 0.173-0.263 0.305c-0.061 0.132-0.092 0.284-0.092 0.457v0.171c0.002 0.169 0.034 0.317 0.095 0.445s0.146 0.226 0.257 0.296c0.112 0.069 0.241 0.103 0.387 0.103 0.209 0 0.377-0.055 0.503-0.164zM30.066 27.297c0.062-0.136 0.093-0.294 0.093-0.474v-0.102c-0.001-0.179-0.033-0.336-0.096-0.47s-0.152-0.239-0.268-0.31c-0.115-0.072-0.247-0.108-0.397-0.108s-0.282 0.037-0.398 0.11c-0.115 0.072-0.205 0.177-0.268 0.314s-0.095 0.295-0.095 0.474v0.103c0.001 0.176 0.033 0.331 0.096 0.465s0.154 0.238 0.27 0.311c0.117 0.072 0.25 0.108 0.398 0.108 0.15 0 0.283-0.036 0.398-0.108s0.205-0.177 0.267-0.313zM29.725 26.26c0.077 0.108 0.116 0.264 0.116 0.468v0.096c0 0.207-0.038 0.364-0.115 0.471s-0.184 0.161-0.325 0.161c-0.139 0-0.249-0.055-0.328-0.165s-0.117-0.266-0.117-0.468v-0.106c0.002-0.197 0.041-0.35 0.118-0.457s0.186-0.163 0.324-0.163c0.141 0 0.25 0.054 0.326 0.163z"></path>
</svg>
